<svg width="25" height="25" viewBox="0 0 25 25" fill="none" xmlns="http://www.w3.org/2000/svg">
<g clip-path="url(#clip0_1501_3467)">
<path d="M18.9833 8.26401C18.7934 8.07261 18.4843 8.07134 18.2928 8.26123C18.1014 8.45117 18.1001 8.76035 18.2901 8.9518L18.293 8.95483C18.3881 9.05068 18.5127 9.09844 18.6374 9.09844C18.7619 9.09844 18.8865 9.05088 18.9821 8.95605C19.1735 8.76611 19.1733 8.45547 18.9833 8.26401Z" fill="url(#paint0_linear_1501_3467)"/>
<path d="M24.8564 14.1358L20.3214 9.60078C20.1307 9.41016 19.8215 9.41016 19.6308 9.60078C19.4401 9.79146 19.4401 10.1006 19.6308 10.2914L23.231 13.8915H14.6458C13.9336 13.8915 13.3542 13.3121 13.3542 12.6V4.0148L16.83 7.49048C17.0206 7.6811 17.3298 7.6811 17.5205 7.49048C17.7112 7.29981 17.7112 6.99063 17.5205 6.7999L13.1099 2.38931C12.9192 2.19868 12.61 2.19868 12.4194 2.38931L4.63519 10.1736C4.44452 10.3643 4.44452 10.6735 4.63519 10.8642L16.3817 22.6107C16.4733 22.7022 16.5975 22.7537 16.727 22.7537C16.8565 22.7537 16.9807 22.7022 17.0723 22.6107L24.8565 14.8264C24.948 14.7348 24.9995 14.6106 24.9995 14.4812C24.9994 14.3517 24.948 14.2274 24.8564 14.1358ZM12.3778 3.81211V10.0307H6.15922L12.3778 3.81211ZM16.2387 21.0866L6.15922 11.0072H12.3778V12.6C12.3778 13.8506 13.3953 14.8681 14.6459 14.8681H16.2387V21.0866ZM17.2152 21.0866V14.8681H23.4337L17.2152 21.0866Z" fill="url(#paint1_linear_1501_3467)"/>
<path d="M3.35112 12.4023H0.488281C0.218604 12.4023 0 12.621 0 12.8906C0 13.1603 0.218604 13.3789 0.488281 13.3789H3.35112C3.6208 13.3789 3.8394 13.1603 3.8394 12.8906C3.8394 12.621 3.6208 12.4023 3.35112 12.4023Z" fill="url(#paint2_linear_1501_3467)"/>
<path d="M4.80811 12.4023H4.80078C4.5311 12.4023 4.3125 12.621 4.3125 12.8906C4.3125 13.1603 4.5311 13.3789 4.80078 13.3789H4.80811C5.07778 13.3789 5.29639 13.1603 5.29639 12.8906C5.29639 12.621 5.07778 12.4023 4.80811 12.4023Z" fill="url(#paint3_linear_1501_3467)"/>
<path d="M2.05093 7.27539H0.488281C0.218604 7.27539 0 7.49404 0 7.76367C0 8.0333 0.218604 8.25195 0.488281 8.25195H2.05093C2.32061 8.25195 2.53921 8.0333 2.53921 7.76367C2.53921 7.49404 2.32061 7.27539 2.05093 7.27539Z" fill="url(#paint4_linear_1501_3467)"/>
<path d="M5.49551 7.27539H3.64844C3.37876 7.27539 3.16016 7.49404 3.16016 7.76367C3.16016 8.0333 3.37876 8.25195 3.64844 8.25195H5.49551C5.76519 8.25195 5.98379 8.0333 5.98379 7.76367C5.98379 7.49404 5.76519 7.27539 5.49551 7.27539Z" fill="url(#paint5_linear_1501_3467)"/>
<path d="M6.55855 15.0879H3.82422C3.55454 15.0879 3.33594 15.3065 3.33594 15.5762C3.33594 15.8458 3.55454 16.0645 3.82422 16.0645H6.55855C6.82822 16.0645 7.04683 15.8458 7.04683 15.5762C7.04683 15.3065 6.82817 15.0879 6.55855 15.0879Z" fill="url(#paint6_linear_1501_3467)"/>
<path d="M8.69331 18.2126H1.80859C1.53892 18.2126 1.32031 18.4313 1.32031 18.7009C1.32031 18.9706 1.53892 19.1892 1.80859 19.1892H8.69331C8.96299 19.1892 9.18159 18.9706 9.18159 18.7009C9.18159 18.4313 8.96299 18.2126 8.69331 18.2126Z" fill="url(#paint7_linear_1501_3467)"/>
</g>
<defs>
<linearGradient id="paint0_linear_1501_3467" x1="18.1484" y1="8.69341" x2="19.1257" y2="8.69341" gradientUnits="userSpaceOnUse">
<stop stop-color="#00229E"/>
<stop offset="0.479167" stop-color="#6E1299"/>
<stop offset="1" stop-color="#FE0094"/>
</linearGradient>
<linearGradient id="paint1_linear_1501_3467" x1="4.49219" y1="14.2679" x2="24.9995" y2="14.2679" gradientUnits="userSpaceOnUse">
<stop stop-color="#00229E"/>
<stop offset="0.479167" stop-color="#6E1299"/>
<stop offset="1" stop-color="#FE0094"/>
</linearGradient>
<linearGradient id="paint2_linear_1501_3467" x1="7.84023e-09" y1="12.9748" x2="3.8394" y2="12.9748" gradientUnits="userSpaceOnUse">
<stop stop-color="#00229E"/>
<stop offset="0.479167" stop-color="#6E1299"/>
<stop offset="1" stop-color="#FE0094"/>
</linearGradient>
<linearGradient id="paint3_linear_1501_3467" x1="4.3125" y1="12.9748" x2="5.29639" y2="12.9748" gradientUnits="userSpaceOnUse">
<stop stop-color="#00229E"/>
<stop offset="0.479167" stop-color="#6E1299"/>
<stop offset="1" stop-color="#FE0094"/>
</linearGradient>
<linearGradient id="paint4_linear_1501_3467" x1="5.18517e-09" y1="7.84786" x2="2.53921" y2="7.84786" gradientUnits="userSpaceOnUse">
<stop stop-color="#00229E"/>
<stop offset="0.479167" stop-color="#6E1299"/>
<stop offset="1" stop-color="#FE0094"/>
</linearGradient>
<linearGradient id="paint5_linear_1501_3467" x1="3.16016" y1="7.84786" x2="5.98379" y2="7.84786" gradientUnits="userSpaceOnUse">
<stop stop-color="#00229E"/>
<stop offset="0.479167" stop-color="#6E1299"/>
<stop offset="1" stop-color="#FE0094"/>
</linearGradient>
<linearGradient id="paint6_linear_1501_3467" x1="3.33594" y1="15.6604" x2="7.04683" y2="15.6604" gradientUnits="userSpaceOnUse">
<stop stop-color="#00229E"/>
<stop offset="0.479167" stop-color="#6E1299"/>
<stop offset="1" stop-color="#FE0094"/>
</linearGradient>
<linearGradient id="paint7_linear_1501_3467" x1="1.32031" y1="18.7851" x2="9.18159" y2="18.7851" gradientUnits="userSpaceOnUse">
<stop stop-color="#00229E"/>
<stop offset="0.479167" stop-color="#6E1299"/>
<stop offset="1" stop-color="#FE0094"/>
</linearGradient>
<clipPath id="clip0_1501_3467">
<rect width="25" height="25" fill="white"/>
</clipPath>
</defs>
</svg>
