<svg width="22" height="22" viewBox="0 0 22 22" fill="none" xmlns="http://www.w3.org/2000/svg">
<g clip-path="url(#clip0_1501_3494)">
<path d="M17.3866 13.6282C16.9362 13.1592 16.3929 12.9084 15.8171 12.9084C15.246 12.9084 14.6981 13.1545 14.2291 13.6235L12.7619 15.0861C12.6412 15.0211 12.5204 14.9608 12.4043 14.9004C12.2372 14.8168 12.0793 14.7379 11.9447 14.6543C10.5703 13.7814 9.32123 12.6438 8.12327 11.1719C7.54287 10.4382 7.15283 9.82069 6.8696 9.19385C7.25034 8.8456 7.60323 8.48343 7.94683 8.13518C8.07684 8.00517 8.20685 7.87052 8.33686 7.74051C9.31194 6.76543 9.31194 5.50246 8.33686 4.52738L7.06925 3.25977C6.92531 3.11583 6.77673 2.96725 6.63743 2.81866C6.35884 2.53078 6.06631 2.23361 5.7645 1.95502C5.31411 1.50927 4.77549 1.27246 4.20901 1.27246C3.64254 1.27246 3.09463 1.50927 2.63031 1.95502C2.62566 1.95966 2.62566 1.95966 2.62102 1.96431L1.04232 3.55694C0.44798 4.15128 0.109023 4.87562 0.0347313 5.71605C-0.0767067 7.07188 0.322613 8.33485 0.629067 9.16134C1.38127 11.1904 2.50494 13.071 4.18115 15.0861C6.2149 17.5146 8.66189 19.4322 11.4571 20.7834C12.5251 21.2895 13.9506 21.8885 15.5432 21.9906C15.6407 21.9953 15.7428 21.9999 15.8357 21.9999C16.9083 21.9999 17.8091 21.6145 18.5149 20.8484C18.5195 20.8391 18.5288 20.8345 18.5334 20.8252C18.7749 20.5327 19.0535 20.268 19.346 19.9848C19.5457 19.7944 19.75 19.5947 19.9496 19.3858C20.4093 18.9075 20.6508 18.3503 20.6508 17.7792C20.6508 17.2035 20.4047 16.6509 19.9357 16.1866L17.3866 13.6282ZM19.0488 18.5175C19.0442 18.5175 19.0442 18.5221 19.0488 18.5175C18.8678 18.7125 18.682 18.889 18.4824 19.084C18.1806 19.3719 17.8741 19.6737 17.5862 20.0126C17.1172 20.5141 16.5647 20.7509 15.8404 20.7509C15.7707 20.7509 15.6964 20.7509 15.6268 20.7463C14.2477 20.658 12.9662 20.1194 12.005 19.6597C9.37695 18.3875 7.06925 16.5813 5.15159 14.2921C3.56824 12.3838 2.50958 10.6193 1.80845 8.72488C1.37663 7.56871 1.21876 6.66792 1.28841 5.8182C1.33484 5.27494 1.54379 4.82455 1.92918 4.43916L3.51253 2.85581C3.74004 2.64222 3.98149 2.52614 4.2183 2.52614C4.51082 2.52614 4.74763 2.70258 4.89621 2.85117C4.90086 2.85581 4.9055 2.86045 4.91014 2.8651C5.19338 3.12976 5.46269 3.40371 5.74593 3.69624C5.88987 3.84482 6.03845 3.99341 6.18704 4.14663L7.45464 5.41424C7.94683 5.90643 7.94683 6.36146 7.45464 6.85365C7.31999 6.9883 7.18998 7.12296 7.05533 7.25297C6.66529 7.65229 6.29383 8.02375 5.88987 8.38592C5.88058 8.39521 5.8713 8.39985 5.86665 8.40914C5.46733 8.80846 5.54163 9.19849 5.6252 9.46315C5.62985 9.47708 5.63449 9.49101 5.63913 9.50494C5.9688 10.3036 6.43313 11.0558 7.1389 11.9519L7.14355 11.9566C8.42508 13.5353 9.77627 14.7657 11.2668 15.7083C11.4571 15.8291 11.6521 15.9266 11.8379 16.0194C12.005 16.103 12.1629 16.1819 12.2976 16.2655C12.3161 16.2748 12.3347 16.2887 12.3533 16.298C12.5111 16.377 12.6597 16.4141 12.813 16.4141C13.1983 16.4141 13.4398 16.1727 13.5187 16.0937L15.1067 14.5057C15.2646 14.3479 15.5153 14.1575 15.8079 14.1575C16.0957 14.1575 16.3325 14.3386 16.4765 14.4964C16.4811 14.5011 16.4811 14.5011 16.4858 14.5057L19.0442 17.0642C19.5225 17.5378 19.5225 18.0253 19.0488 18.5175Z" fill="url(#paint0_linear_1501_3494)"/>
<path d="M11.8871 5.23324C13.1036 5.43755 14.2087 6.01331 15.0909 6.89553C15.9731 7.77774 16.5442 8.88284 16.7532 10.0994C16.8043 10.4058 17.0689 10.6194 17.3707 10.6194C17.4079 10.6194 17.4404 10.6148 17.4775 10.6101C17.8211 10.5544 18.0487 10.2294 17.9929 9.88578C17.7422 8.41387 17.0457 7.07197 15.9824 6.00867C14.9191 4.94536 13.5772 4.24887 12.1053 3.99814C11.7617 3.94242 11.4413 4.16994 11.3809 4.5089C11.3206 4.84785 11.5435 5.17752 11.8871 5.23324Z" fill="url(#paint1_linear_1501_3494)"/>
<path d="M21.974 9.70466C21.5607 7.28089 20.4185 5.07534 18.6633 3.32019C16.9082 1.56505 14.7026 0.422806 12.2789 0.0095565C11.9399 -0.0508058 11.6195 0.181357 11.5592 0.520314C11.5034 0.863915 11.731 1.1843 12.0746 1.24466C14.2383 1.61148 16.2117 2.63764 17.7811 4.20241C19.3505 5.77183 20.3721 7.74521 20.7389 9.90897C20.7899 10.2154 21.0546 10.429 21.3564 10.429C21.3936 10.429 21.4261 10.4244 21.4632 10.4197C21.8022 10.3686 22.0343 10.0436 21.974 9.70466Z" fill="url(#paint2_linear_1501_3494)"/>
</g>
<defs>
<linearGradient id="paint0_linear_1501_3494" x1="0.015625" y1="13.423" x2="20.6508" y2="13.423" gradientUnits="userSpaceOnUse">
<stop stop-color="#00229E"/>
<stop offset="0.479167" stop-color="#6E1299"/>
<stop offset="1" stop-color="#FE0094"/>
</linearGradient>
<linearGradient id="paint1_linear_1501_3494" x1="11.3711" y1="7.8761" x2="18.0013" y2="7.8761" gradientUnits="userSpaceOnUse">
<stop stop-color="#00229E"/>
<stop offset="0.479167" stop-color="#6E1299"/>
<stop offset="1" stop-color="#FE0094"/>
</linearGradient>
<linearGradient id="paint2_linear_1501_3494" x1="11.5508" y1="6.11356" x2="21.9835" y2="6.11356" gradientUnits="userSpaceOnUse">
<stop stop-color="#00229E"/>
<stop offset="0.479167" stop-color="#6E1299"/>
<stop offset="1" stop-color="#FE0094"/>
</linearGradient>
<clipPath id="clip0_1501_3494">
<rect width="22" height="22" fill="white"/>
</clipPath>
</defs>
</svg>
