<svg width="25" height="25" viewBox="0 0 25 25" fill="none" xmlns="http://www.w3.org/2000/svg">
<path d="M19.9763 3.09698C17.9792 1.09986 15.3239 0 12.4995 0C9.67521 0 7.01983 1.09986 5.02276 3.09698C3.02564 5.09415 1.92578 7.74943 1.92578 10.5737C1.92578 16.2872 7.32804 21.0394 10.2303 23.5924C10.6337 23.9472 10.982 24.2536 11.2594 24.5128C11.6071 24.8375 12.0533 25 12.4995 25C12.9457 25 13.3919 24.8375 13.7396 24.5128C14.0171 24.2536 14.3654 23.9472 14.7687 23.5924C17.671 21.0393 23.0732 16.2872 23.0732 10.5737C23.0732 7.74943 21.9734 5.09415 19.9763 3.09698ZM13.8014 22.4929C13.3892 22.8555 13.0333 23.1686 12.7399 23.4427C12.6051 23.5685 12.3939 23.5686 12.2591 23.4427C11.9656 23.1685 11.6097 22.8554 11.1975 22.4929C8.46901 20.0927 3.39014 15.625 3.39014 10.5738C3.39014 5.55089 7.47652 1.4645 12.4994 1.4645C17.5223 1.4645 21.6087 5.55089 21.6087 10.5738C21.6087 15.625 16.5299 20.0927 13.8014 22.4929Z" fill="url(#paint0_linear_1501_3759)"/>
<path d="M12.4996 5.51465C9.93018 5.51465 7.83984 7.60494 7.83984 10.1743C7.83984 12.7437 9.93018 14.834 12.4996 14.834C15.069 14.834 17.1592 12.7437 17.1592 10.1743C17.1592 7.60494 15.069 5.51465 12.4996 5.51465ZM12.4996 13.3695C10.7377 13.3695 9.3043 11.9361 9.3043 10.1743C9.3043 8.41246 10.7377 6.97906 12.4996 6.97906C14.2614 6.97906 15.6948 8.41246 15.6948 10.1743C15.6948 11.9361 14.2614 13.3695 12.4996 13.3695Z" fill="url(#paint1_linear_1501_3759)"/>
<defs>
<linearGradient id="paint0_linear_1501_3759" x1="1.92578" y1="14.6551" x2="23.0732" y2="14.6551" gradientUnits="userSpaceOnUse">
<stop stop-color="#00229E"/>
<stop offset="0.479167" stop-color="#6E1299"/>
<stop offset="1" stop-color="#FE0094"/>
</linearGradient>
<linearGradient id="paint1_linear_1501_3759" x1="7.83984" y1="10.9777" x2="17.1592" y2="10.9777" gradientUnits="userSpaceOnUse">
<stop stop-color="#00229E"/>
<stop offset="0.479167" stop-color="#6E1299"/>
<stop offset="1" stop-color="#FE0094"/>
</linearGradient>
</defs>
</svg>
