<svg width="25" height="25" viewBox="0 0 25 25" fill="none" xmlns="http://www.w3.org/2000/svg">
<g clip-path="url(#clip0_1501_3772)">
<path d="M19.7592 15.4866C19.2474 14.9537 18.6301 14.6688 17.9758 14.6688C17.3268 14.6688 16.7042 14.9484 16.1713 15.4813L14.5039 17.1434C14.3667 17.0695 14.2295 17.0009 14.0976 16.9323C13.9077 16.8374 13.7283 16.7477 13.5753 16.6527C12.0134 15.6607 10.5941 14.368 9.23277 12.6954C8.57321 11.8617 8.13 11.1599 7.80813 10.4476C8.2408 10.0519 8.64181 9.64033 9.03226 9.24459C9.18 9.09685 9.32774 8.94384 9.47548 8.7961C10.5835 7.68805 10.5835 6.25286 9.47548 5.14482L8.03502 3.70435C7.87145 3.54078 7.70261 3.37194 7.54431 3.20309C7.22773 2.87596 6.89531 2.53826 6.55235 2.22168C6.04053 1.71514 5.42847 1.44604 4.78474 1.44604C4.14102 1.44604 3.5184 1.71514 2.99076 2.22168C2.98549 2.22696 2.98549 2.22696 2.98021 2.23223L1.18623 4.04204C0.510844 4.71743 0.125666 5.54055 0.0412429 6.49558C-0.0853912 8.03629 0.368381 9.47148 0.716625 10.4107C1.5714 12.7165 2.8483 14.8534 4.75309 17.1434C7.06416 19.903 9.84483 22.0821 13.0212 23.6176C14.2348 24.1927 15.8547 24.8734 17.6645 24.9894C17.7753 24.9947 17.8914 25 17.9969 25C19.2158 25 20.2394 24.562 21.0414 23.6914C21.0467 23.6809 21.0572 23.6756 21.0625 23.6651C21.3369 23.3326 21.6535 23.0319 21.9859 22.71C22.2128 22.4937 22.4449 22.2668 22.6718 22.0294C23.1942 21.4859 23.4685 20.8527 23.4685 20.2037C23.4685 19.5494 23.1889 18.9216 22.656 18.3939L19.7592 15.4866ZM21.6482 21.0427C21.6429 21.0427 21.6429 21.0479 21.6482 21.0427C21.4424 21.2643 21.2313 21.4648 21.0045 21.6864C20.6615 22.0135 20.3133 22.3565 19.9861 22.7417C19.4532 23.3115 18.8253 23.5806 18.0022 23.5806C17.923 23.5806 17.8386 23.5806 17.7595 23.5754C16.1924 23.4751 14.7361 22.863 13.6439 22.3407C10.6574 20.8949 8.03502 18.8424 5.85586 16.2411C4.0566 14.0725 2.85358 12.0675 2.05684 9.9147C1.56613 8.60087 1.38673 7.57725 1.46588 6.61166C1.51864 5.99432 1.75608 5.48251 2.19402 5.04456L3.99328 3.2453C4.25183 3.00259 4.5262 2.87068 4.7953 2.87068C5.12771 2.87068 5.39681 3.07118 5.56566 3.24003C5.57093 3.2453 5.57621 3.25058 5.58148 3.25586C5.90335 3.55661 6.20938 3.86792 6.53124 4.20034C6.69481 4.36918 6.86365 4.53803 7.0325 4.71215L8.47296 6.15261C9.03226 6.71191 9.03226 7.229 8.47296 7.7883C8.31995 7.94132 8.17221 8.09434 8.01919 8.24207C7.57597 8.69585 7.15386 9.11796 6.69481 9.52952C6.68426 9.54007 6.6737 9.54535 6.66843 9.5559C6.21465 10.0097 6.29908 10.4529 6.39405 10.7537C6.39933 10.7695 6.40461 10.7853 6.40988 10.8011C6.78451 11.7087 7.31215 12.5635 8.11417 13.5818L8.11944 13.5871C9.57574 15.3811 11.1112 16.7793 12.8049 17.8504C13.0212 17.9876 13.2428 18.0984 13.4539 18.204C13.6439 18.2989 13.8233 18.3886 13.9763 18.4836C13.9974 18.4942 14.0185 18.51 14.0396 18.5205C14.219 18.6102 14.3878 18.6525 14.562 18.6525C14.9999 18.6525 15.2743 18.3781 15.364 18.2884L17.1685 16.4838C17.3479 16.3044 17.6328 16.0881 17.9652 16.0881C18.2924 16.0881 18.5615 16.2939 18.725 16.4733C18.7303 16.4786 18.7303 16.4786 18.7356 16.4838L21.6429 19.3912C22.1864 19.9293 22.1864 20.4834 21.6482 21.0427Z" fill="url(#paint0_linear_1501_3772)"/>
<path d="M13.5121 5.94676C14.8945 6.17892 16.1503 6.83319 17.1528 7.83571C18.1554 8.83823 18.8044 10.094 19.0418 11.4764C19.0998 11.8247 19.4006 12.0674 19.7436 12.0674C19.7858 12.0674 19.8227 12.0621 19.8649 12.0569C20.2554 11.9935 20.5139 11.6242 20.4506 11.2337C20.1657 9.5611 19.3742 8.03622 18.1659 6.82792C16.9576 5.61962 15.4327 4.82815 13.7601 4.54323C13.3696 4.47991 13.0056 4.73846 12.937 5.12363C12.8684 5.50881 13.1217 5.88344 13.5121 5.94676Z" fill="url(#paint1_linear_1501_3772)"/>
<path d="M24.9734 11.028C24.5038 8.27374 23.2058 5.76744 21.2114 3.77295C19.2169 1.77846 16.7106 0.480461 13.9563 0.0108597C13.5711 -0.0577338 13.207 0.206087 13.1384 0.591266C13.0751 0.981721 13.3337 1.34579 13.7241 1.41439C16.1829 1.83123 18.4254 2.99731 20.2088 4.77547C21.9923 6.5589 23.1531 8.80138 23.5699 11.2602C23.628 11.6084 23.9287 11.8511 24.2717 11.8511C24.3139 11.8511 24.3508 11.8459 24.393 11.8406C24.7782 11.7826 25.042 11.4132 24.9734 11.028Z" fill="url(#paint2_linear_1501_3772)"/>
</g>
<defs>
<linearGradient id="paint0_linear_1501_3772" x1="0.0195313" y1="15.2535" x2="23.4685" y2="15.2535" gradientUnits="userSpaceOnUse">
<stop stop-color="#00229E"/>
<stop offset="0.479167" stop-color="#6E1299"/>
<stop offset="1" stop-color="#FE0094"/>
</linearGradient>
<linearGradient id="paint1_linear_1501_3772" x1="12.9258" y1="8.95" x2="20.4601" y2="8.95" gradientUnits="userSpaceOnUse">
<stop stop-color="#00229E"/>
<stop offset="0.479167" stop-color="#6E1299"/>
<stop offset="1" stop-color="#FE0094"/>
</linearGradient>
<linearGradient id="paint2_linear_1501_3772" x1="13.1289" y1="6.94722" x2="24.9843" y2="6.94722" gradientUnits="userSpaceOnUse">
<stop stop-color="#00229E"/>
<stop offset="0.479167" stop-color="#6E1299"/>
<stop offset="1" stop-color="#FE0094"/>
</linearGradient>
<clipPath id="clip0_1501_3772">
<rect width="25" height="25" fill="white"/>
</clipPath>
</defs>
</svg>
