<svg width="25" height="25" viewBox="0 0 25 25" fill="none" xmlns="http://www.w3.org/2000/svg">
<g clip-path="url(#clip0_1501_3784)">
<path d="M21.3388 3.66116C18.9779 1.30024 15.8388 0 12.5 0C9.16119 0 6.02207 1.30024 3.66116 3.66116C1.30024 6.02207 0 9.16119 0 12.5C0 15.8388 1.30024 18.9779 3.66116 21.3388C6.02207 23.6998 9.16119 25 12.5 25C15.8388 25 18.9779 23.6998 21.3388 21.3388C23.6998 18.9779 25 15.8388 25 12.5C25 9.16119 23.6998 6.02207 21.3388 3.66116ZM13.2257 23.5107V22.0125C13.2257 21.608 12.8979 21.2801 12.4933 21.2801C12.089 21.2801 11.7609 21.608 11.7609 22.0125V23.5098C6.26163 23.1443 1.85204 18.7326 1.48983 13.2324H3.11508C3.51944 13.2324 3.8475 12.9045 3.8475 12.5C3.8475 12.0955 3.51944 11.7676 3.11508 11.7676H1.48983C1.85223 6.26297 6.26869 1.8486 11.7743 1.48926V3.0365C11.7743 3.44105 12.1021 3.76892 12.5067 3.76892C12.911 3.76892 13.2391 3.44105 13.2391 3.0365V1.49021C18.7384 1.85566 23.148 6.26736 23.5102 11.7676H22.0022C21.5979 11.7676 21.2698 12.0955 21.2698 12.5C21.2698 12.9045 21.5979 13.2324 22.0022 13.2324H23.5102C23.1478 18.737 18.7313 23.1514 13.2257 23.5107Z" fill="url(#paint0_linear_1501_3784)"/>
<path d="M14.4014 13.5136C14.5632 13.2111 14.6553 12.8663 14.6553 12.5001C14.6553 12.2529 14.613 12.0152 14.5359 11.794L17.1404 9.18948C17.4263 8.90356 17.4263 8.4397 17.1404 8.15379C16.8543 7.86768 16.3906 7.86768 16.1045 8.15379L13.607 10.6513C13.283 10.4565 12.9042 10.3442 12.4994 10.3442C11.3108 10.3442 10.3438 11.3114 10.3438 12.5001C10.3438 13.6887 11.3108 14.6557 12.4994 14.6557C12.7871 14.6557 13.0615 14.5987 13.3125 14.4961L18.4605 19.644C18.6035 19.7871 18.791 19.8586 18.9783 19.8586C19.1658 19.8586 19.3533 19.7871 19.4964 19.644C19.7823 19.3581 19.7823 18.8943 19.4964 18.6083L14.4014 13.5136ZM11.8084 12.5001C11.8084 12.119 12.1185 11.809 12.4994 11.809C12.8803 11.809 13.1905 12.1192 13.1905 12.5001C13.1905 12.881 12.8803 13.1911 12.4994 13.1911C12.1185 13.1911 11.8084 12.8811 11.8084 12.5001Z" fill="url(#paint1_linear_1501_3784)"/>
</g>
<defs>
<linearGradient id="paint0_linear_1501_3784" x1="5.10511e-08" y1="14.6552" x2="25" y2="14.6552" gradientUnits="userSpaceOnUse">
<stop stop-color="#00229E"/>
<stop offset="0.479167" stop-color="#6E1299"/>
<stop offset="1" stop-color="#FE0094"/>
</linearGradient>
<linearGradient id="paint1_linear_1501_3784" x1="10.3438" y1="14.9264" x2="19.7108" y2="14.9264" gradientUnits="userSpaceOnUse">
<stop stop-color="#00229E"/>
<stop offset="0.479167" stop-color="#6E1299"/>
<stop offset="1" stop-color="#FE0094"/>
</linearGradient>
<clipPath id="clip0_1501_3784">
<rect width="25" height="25" fill="white"/>
</clipPath>
</defs>
</svg>
